# xmcd
#
# Track frame offsets: 
#        150
#        22950
#        43400
#        64475
#        86763
#        104038
#        123450
#        147563
#        162238
#        183338
#
# Disc length: 2737 seconds
#
# Revision: 0
# Processed by: cddbd v1.5.1PL0 Copyright (c) Steve Scherf et al.
# Submitted via: ExactAudioCopy v0.95a4
#
DISCID=970aaf0a
DTITLE=蓝心湄 - 爱我到今生
DYEAR=1994
DGENRE=Pop
TTITLE0=爱我到今生
TTITLE1=替身女子
TTITLE2=心慌意乱
TTITLE3=爱你不再是秘密
TTITLE4=随心所欲
TTITLE5=活像个小孩
TTITLE6=我给你
TTITLE7=让我像个女人
TTITLE8=请原谅我的心
TTITLE9=忘记
EXTD=
EXTT0=
EXTT1=
EXTT2=
EXTT3=
EXTT4=
EXTT5=
EXTT6=
EXTT7=
EXTT8=
EXTT9=
PLAYORDER=
